<?xml version="1.0" encoding="utf-8"?>
<!-- Generator: Adobe Illustrator 19.2.1, SVG Export Plug-In . SVG Version: 6.00 Build 0)  -->
<svg version="1.1" id="Layer_1" xmlns="http://www.w3.org/2000/svg" xmlns:xlink="http://www.w3.org/1999/xlink" x="0px" y="0px"
	 viewBox="0 0 516 253.5" style="enable-background:new 0 0 516 253.5;" xml:space="preserve">
<style type="text/css">
	.st0{display:none;}
	.st1{fill:#1E5374;}
</style>
<g id="Layer_2" class="st0">
</g>
<g id="Layer_3" class="st0">
</g>
<g>
	<path class="st1" d="M366.1,123.7v-1.2h4.2v3.7c-0.7,0.5-1.3,0.9-2,1.2c-0.7,0.3-1.4,0.4-2.1,0.4c-1,0-1.9-0.2-2.7-0.6
		c-0.8-0.4-1.4-1-1.8-1.8s-0.6-1.7-0.6-2.7s0.2-1.9,0.6-2.7c0.4-0.8,1-1.5,1.8-1.9s1.6-0.6,2.6-0.6c0.7,0,1.4,0.1,2,0.4
		c0.6,0.2,1,0.6,1.4,1c0.3,0.4,0.6,1,0.8,1.6l-1.2,0.3c-0.2-0.5-0.3-0.9-0.6-1.2c-0.2-0.3-0.5-0.5-1-0.7c-0.4-0.2-0.9-0.3-1.4-0.3
		c-0.6,0-1.1,0.1-1.6,0.3c-0.4,0.2-0.8,0.4-1.1,0.7c-0.3,0.3-0.5,0.6-0.6,1c-0.3,0.6-0.4,1.3-0.4,2c0,0.9,0.2,1.6,0.5,2.2
		s0.8,1,1.3,1.3s1.2,0.4,1.9,0.4c0.6,0,1.1-0.1,1.7-0.3c0.5-0.2,1-0.5,1.2-0.7v-1.9L366.1,123.7L366.1,123.7z"/>
	<path class="st1" d="M371.2,127.6l3.8-10h1.4l4.1,10H379l-1.2-3h-4.2l-1.1,3H371.2z M374.1,123.5h3.4l-1-2.8
		c-0.3-0.8-0.6-1.5-0.7-2.1c-0.1,0.6-0.3,1.3-0.5,1.9L374.1,123.5z"/>
	<path class="st1" d="M381.7,127.6v-10h3.8c0.7,0,1.2,0,1.5,0.1c0.5,0.1,0.9,0.2,1.2,0.5c0.3,0.2,0.6,0.6,0.8,1
		c0.2,0.4,0.3,0.9,0.3,1.4c0,0.9-0.3,1.6-0.8,2.2s-1.5,0.9-2.9,0.9H383v4.1h-1.3V127.6z M383,122.4h2.6c0.9,0,1.5-0.2,1.8-0.5
		c0.4-0.3,0.5-0.8,0.5-1.3c0-0.4-0.1-0.8-0.3-1.1c-0.2-0.3-0.5-0.5-0.8-0.6c-0.2-0.1-0.6-0.1-1.2-0.1H383V122.4z"/>
</g>
</svg>
