<?xml version="1.0" encoding="utf-8"?>
<!-- Generator: Adobe Illustrator 19.2.1, SVG Export Plug-In . SVG Version: 6.00 Build 0)  -->
<svg version="1.1" id="Layer_1" xmlns="http://www.w3.org/2000/svg" xmlns:xlink="http://www.w3.org/1999/xlink" x="0px" y="0px"
	 viewBox="0 0 516 253.5" style="enable-background:new 0 0 516 253.5;" xml:space="preserve">
<style type="text/css">
	.st0{opacity:0.75;fill:none;stroke:#1E5374;stroke-miterlimit:10;enable-background:new    ;}
	.st1{opacity:0.75;fill:none;stroke:#1E5374;stroke-width:2;stroke-miterlimit:10;enable-background:new    ;}
	.st2{enable-background:new    ;}
	.st3{fill:#1E5374;}
</style>
<line class="st0" x1="258" y1="244.9" x2="258" y2="9.2"/>
<line class="st1" x1="7.5" y1="245.1" x2="508.4" y2="245.1"/>
<g class="st2">
	<path class="st3" d="M267.2,25.4v-10h7.2v1.2h-5.9v3.1h5.5v1.2h-5.5v3.4h6.2v1.2h-7.5V25.4z"/>
	<path class="st3" d="M276.5,25.4v-10h1.4l5.3,7.9v-7.9h1.3v10h-1.4l-5.3-7.9v7.9H276.5z"/>
	<path class="st3" d="M286.7,25.4v-10h7.2v1.2H288v3.1h5.5v1.2H288v3.4h6.2v1.2h-7.5V25.4z"/>
	<path class="st3" d="M296,25.4v-10h4.4c0.9,0,1.6,0.1,2,0.3c0.5,0.2,0.8,0.5,1.1,1s0.4,1,0.4,1.5c0,0.7-0.2,1.3-0.7,1.8
		s-1.2,0.8-2.1,0.9c0.4,0.2,0.6,0.3,0.8,0.5c0.4,0.4,0.8,0.8,1.1,1.3l1.7,2.7H303l-1.3-2.1c-0.4-0.6-0.7-1.1-1-1.4
		c-0.3-0.3-0.5-0.5-0.7-0.7s-0.4-0.2-0.6-0.3c-0.2,0-0.4,0-0.7,0h-1.5v4.5H296z M297.3,19.8h2.9c0.6,0,1.1-0.1,1.4-0.2
		c0.3-0.1,0.6-0.3,0.8-0.6c0.2-0.3,0.3-0.6,0.3-0.9c0-0.5-0.2-0.9-0.5-1.2c-0.3-0.3-0.9-0.5-1.6-0.5h-3.2v3.4H297.3z"/>
	<path class="st3" d="M310.8,21.4v-1.2h4.2V24c-0.7,0.5-1.3,0.9-2,1.2c-0.7,0.3-1.4,0.4-2.1,0.4c-1,0-1.9-0.2-2.7-0.6
		c-0.8-0.4-1.4-1-1.8-1.8s-0.6-1.7-0.6-2.7s0.2-1.9,0.6-2.7c0.4-0.8,1-1.5,1.8-1.9c0.8-0.4,1.6-0.6,2.6-0.6c0.7,0,1.4,0.1,2,0.4
		c0.6,0.2,1,0.6,1.4,1c0.4,0.4,0.6,1,0.8,1.6l-1.2,0.3c-0.2-0.5-0.3-0.9-0.6-1.2c-0.3-0.3-0.5-0.5-1-0.7c-0.4-0.2-0.9-0.3-1.4-0.3
		c-0.6,0-1.1,0.1-1.6,0.3c-0.4,0.2-0.8,0.4-1.1,0.7c-0.3,0.3-0.5,0.6-0.6,1c-0.3,0.6-0.4,1.3-0.4,2c0,0.9,0.2,1.6,0.5,2.2
		c0.3,0.6,0.8,1,1.3,1.3s1.2,0.4,1.9,0.4c0.6,0,1.1-0.1,1.7-0.3c0.5-0.2,1-0.5,1.2-0.7v-1.9C313.7,21.4,310.8,21.4,310.8,21.4z"/>
	<path class="st3" d="M319.8,25.4v-4.2l-3.9-5.8h1.6l2,3c0.4,0.6,0.7,1.1,1,1.7c0.3-0.5,0.7-1.1,1.1-1.8l1.9-2.9h1.5l-4,5.8v4.2
		C321,25.4,319.8,25.4,319.8,25.4z"/>
</g>
</svg>
