<?xml version="1.0" encoding="utf-8"?>
<!-- Generator: Adobe Illustrator 19.2.1, SVG Export Plug-In . SVG Version: 6.00 Build 0)  -->
<svg version="1.1" id="Layer_1" xmlns="http://www.w3.org/2000/svg" xmlns:xlink="http://www.w3.org/1999/xlink" x="0px" y="0px"
	 viewBox="0 0 516 253.5" style="enable-background:new 0 0 516 253.5;" xml:space="preserve">
<style type="text/css">
	.st0{display:none;}
	.st1{fill:#1E5374;}
</style>
<g id="Layer_2" class="st0">
</g>
<g id="Layer_3" class="st0">
</g>
<g>
	<path class="st1" d="M355.6,196.7v-10h3.8c0.8,0,1.4,0.1,1.8,0.3c0.5,0.2,0.8,0.5,1.1,0.9c0.3,0.4,0.4,0.9,0.4,1.3
		c0,0.4-0.1,0.8-0.3,1.2s-0.6,0.7-1.1,0.9c0.6,0.2,1.1,0.5,1.4,0.9s0.5,0.9,0.5,1.5c0,0.5-0.1,0.9-0.3,1.3c-0.2,0.4-0.4,0.7-0.7,0.9
		c-0.3,0.2-0.7,0.4-1.1,0.5s-1,0.2-1.6,0.2h-3.9L355.6,196.7L355.6,196.7z M356.9,190.8h2.2c0.6,0,1,0,1.3-0.1s0.6-0.3,0.8-0.5
		s0.3-0.5,0.3-0.9c0-0.3-0.1-0.6-0.2-0.9c-0.2-0.3-0.4-0.4-0.7-0.5c-0.3-0.1-0.8-0.1-1.5-0.1h-2v3H356.9z M356.9,195.5h2.5
		c0.4,0,0.7,0,0.9,0c0.3-0.1,0.6-0.1,0.8-0.3s0.4-0.3,0.5-0.6c0.1-0.2,0.2-0.5,0.2-0.8c0-0.4-0.1-0.7-0.3-1
		c-0.2-0.3-0.5-0.5-0.8-0.6s-0.8-0.2-1.5-0.2h-2.3L356.9,195.5L356.9,195.5z"/>
	<path class="st1" d="M363.9,196.7l3.8-10h1.4l4.1,10h-1.5l-1.2-3h-4.2l-1.1,3H363.9z M366.8,192.5h3.4l-1-2.8
		c-0.3-0.8-0.6-1.5-0.7-2.1c-0.1,0.6-0.3,1.3-0.5,1.9L366.8,192.5z"/>
	<path class="st1" d="M374.3,196.7v-10h1.4l5.3,7.9v-7.9h1.3v10h-1.4l-5.3-7.9v7.9H374.3z"/>
	<path class="st1" d="M384.4,196.7v-10h3.5c0.8,0,1.4,0,1.8,0.1c0.6,0.1,1.1,0.4,1.5,0.7c0.5,0.4,0.9,1,1.2,1.7
		c0.3,0.7,0.4,1.5,0.4,2.4c0,0.8-0.1,1.4-0.3,2s-0.4,1.1-0.7,1.5c-0.3,0.4-0.6,0.7-0.9,0.9s-0.7,0.4-1.2,0.5s-1,0.2-1.6,0.2
		L384.4,196.7L384.4,196.7z M385.7,195.5h2.1c0.7,0,1.2-0.1,1.6-0.2s0.7-0.3,0.9-0.5c0.3-0.3,0.6-0.7,0.7-1.3
		c0.2-0.5,0.3-1.2,0.3-1.9c0-1-0.2-1.9-0.5-2.4c-0.3-0.6-0.8-0.9-1.3-1.1c-0.4-0.1-0.9-0.2-1.7-0.2h-2.1V195.5z"/>
</g>
</svg>
